<svg xmlns="http://www.w3.org/2000/svg" width="1380" height="820" viewBox="0 0 1380 820" role="img" aria-labelledby="title desc">
<title>Diagram</title>
<desc>Generated diagram for README</desc>
<defs>
<marker id="arrow" markerWidth="10" markerHeight="8" refX="9" refY="4" orient="auto" markerUnits="strokeWidth">
<path d="M0,0 L10,4 L0,8 z" fill="#444"/></marker>
</defs>
<rect x="0" y="0" width="100%" height="100%" fill="#ffffff"/>
<style>text{font-family:Arial,Helvetica,sans-serif;fill:#222}.title{font-size:22px;font-weight:700}.label{font-size:14px}.small{font-size:12px}.box{fill:#f8f9fb;stroke:#555;stroke-width:1.5}.group{fill:#fcfcfd;stroke:#888;stroke-width:1.5;stroke-dasharray:6 4}.line{stroke:#444;stroke-width:2;fill:none;marker-end:url(#arrow)}</style>
<text class="title" x="30" y="40">Архитектура сервиса назначения врача</text>
<rect class="group" x="30" y="70" width="360" height="650" rx="12" ry="12"/>
<text class="label" x="44" y="94">QMatic Orchestra 6</text>
<rect class="box" x="70" y="130" width="270" height="100" rx="10" ry="10"/>
<text class="label" x="205.0" y="154" text-anchor="middle" font-weight="700">REST API</text>
<text class="small" x="205.0" y="176" text-anchor="middle">справочники, визиты, переводы</text>
<rect class="box" x="70" y="300" width="270" height="100" rx="10" ry="10"/>
<text class="label" x="205.0" y="324" text-anchor="middle" font-weight="700">SockJS / STOMP</text>
<text class="small" x="205.0" y="346" text-anchor="middle">SERVICE_POINT_OPEN</text>
<text class="small" x="205.0" y="362" text-anchor="middle">SET_WORK_PROFILE</text>
<rect class="box" x="70" y="470" width="270" height="100" rx="10" ry="10"/>
<text class="label" x="205.0" y="494" text-anchor="middle" font-weight="700">Операции над визитами</text>
<text class="small" x="205.0" y="516" text-anchor="middle">assign service</text>
<text class="small" x="205.0" y="532" text-anchor="middle">transfer visit</text>
<rect class="group" x="470" y="70" width="860" height="650" rx="12" ry="12"/>
<text class="label" x="484" y="94">med-doctor-assignment-service</text>
<rect class="box" x="530" y="130" width="230" height="100" rx="10" ry="10"/>
<text class="label" x="645.0" y="154" text-anchor="middle" font-weight="700">WebSocketService</text>
<text class="small" x="645.0" y="176" text-anchor="middle">подключение и переподключение</text>
<rect class="box" x="800" y="130" width="230" height="100" rx="10" ry="10"/>
<text class="label" x="915.0" y="154" text-anchor="middle" font-weight="700">DoctorAssignmentEventHandler</text>
<text class="small" x="915.0" y="176" text-anchor="middle">дедупликация</text>
<text class="small" x="915.0" y="192" text-anchor="middle">восстановление контекста</text>
<rect class="box" x="1070" y="130" width="210" height="100" rx="10" ry="10"/>
<text class="label" x="1175.0" y="154" text-anchor="middle" font-weight="700">PollingReconciliationJob</text>
<text class="small" x="1175.0" y="176" text-anchor="middle">fallback-цикл</text>
<rect class="box" x="530" y="320" width="230" height="110" rx="10" ry="10"/>
<text class="label" x="645.0" y="344" text-anchor="middle" font-weight="700">AutonomousMedicalExamAssignmentService</text>
<text class="small" x="645.0" y="366" text-anchor="middle">главный оркестратор назначения</text>
<rect class="box" x="800" y="320" width="230" height="110" rx="10" ry="10"/>
<text class="label" x="915.0" y="344" text-anchor="middle" font-weight="700">BranchCacheUpdater</text>
<text class="small" x="915.0" y="366" text-anchor="middle">перестройка branch cache</text>
<rect class="box" x="1070" y="320" width="210" height="110" rx="10" ry="10"/>
<text class="label" x="1175.0" y="344" text-anchor="middle" font-weight="700">OrchestraDataCacheContainer</text>
<text class="small" x="1175.0" y="366" text-anchor="middle">атомарная подмена кэша</text>
<rect class="box" x="665" y="520" width="240" height="110" rx="10" ry="10"/>
<text class="label" x="785.0" y="544" text-anchor="middle" font-weight="700">ConfigurableVisitWorkflowGateway</text>
<text class="small" x="785.0" y="566" text-anchor="middle">assign/transfer via REST</text>
<line class="line" x1="340" y1="350" x2="530" y2="180"/>
<rect x="350.0" y="253.0" width="170" height="20" fill="#fff"/>
<text class="small" x="435.0" y="267.0" text-anchor="middle">события врача</text>
<line class="line" x1="340" y1="180" x2="800" y2="375"/>
<rect x="485.0" y="265.5" width="170" height="20" fill="#fff"/>
<text class="small" x="570.0" y="279.5" text-anchor="middle">справочники / детали визитов</text>
<line class="line" x1="340" y1="520" x2="665" y2="575"/>
<rect x="417.5" y="535.5" width="170" height="20" fill="#fff"/>
<text class="small" x="502.5" y="549.5" text-anchor="middle">workflow визита</text>
<line class="line" x1="760" y1="180" x2="800" y2="180"/>
<rect x="695.0" y="168.0" width="170" height="20" fill="#fff"/>
<text class="small" x="780.0" y="182.0" text-anchor="middle">raw event</text>
<line class="line" x1="915" y1="230" x2="645" y2="320"/>
<rect x="695.0" y="263.0" width="170" height="20" fill="#fff"/>
<text class="small" x="780.0" y="277.0" text-anchor="middle">process(context)</text>
<line class="line" x1="915" y1="430" x2="1175" y2="375"/>
<rect x="960.0" y="390.5" width="170" height="20" fill="#fff"/>
<text class="small" x="1045.0" y="404.5" text-anchor="middle">refresh cache</text>
<line class="line" x1="915" y1="430" x2="785" y2="575"/>
<rect x="765.0" y="490.5" width="170" height="20" fill="#fff"/>
<text class="small" x="850.0" y="504.5" text-anchor="middle">execute decision</text>
<line class="line" x1="1175" y1="430" x2="1175" y2="320" stroke-dasharray="7 5"/>
<rect x="1090.0" y="363.0" width="170" height="20" fill="#fff"/>
<text class="small" x="1175.0" y="377.0" text-anchor="middle">get/replace cache</text>
<line class="line" x1="1175" y1="320" x2="915" y2="320"/>
<rect x="960.0" y="308.0" width="170" height="20" fill="#fff"/>
<text class="small" x="1045.0" y="322.0" text-anchor="middle">branch metadata</text>
<line class="line" x1="1070" y1="180" x2="1070" y2="320" stroke-dasharray="7 5"/>
<rect x="985.0" y="238.0" width="170" height="20" fill="#fff"/>
<text class="small" x="1070.0" y="252.0" text-anchor="middle">fallback refresh</text>
</svg>