<svg xmlns="http://www.w3.org/2000/svg" width="1500" height="780" viewBox="0 0 1500 780" role="img" aria-labelledby="title desc">
<title>Diagram</title>
<desc>Generated diagram for README</desc>
<defs>
<marker id="arrow" markerWidth="10" markerHeight="8" refX="9" refY="4" orient="auto" markerUnits="strokeWidth">
<path d="M0,0 L10,4 L0,8 z" fill="#444"/></marker>
</defs>
<rect x="0" y="0" width="100%" height="100%" fill="#ffffff"/>
<style>text{font-family:Arial,Helvetica,sans-serif;fill:#222}.title{font-size:22px;font-weight:700}.label{font-size:14px}.small{font-size:12px}.box{fill:#f8f9fb;stroke:#555;stroke-width:1.5}.group{fill:#fcfcfd;stroke:#888;stroke-width:1.5;stroke-dasharray:6 4}.line{stroke:#444;stroke-width:2;fill:none;marker-end:url(#arrow)}</style>
<text class="title" x="30" y="40">Последовательность назначения визита врачу</text>
<rect class="box" x="30" y="70" width="180" height="60" rx="10" ry="10"/>
<text class="label" x="120.0" y="94" text-anchor="middle" font-weight="700">Orchestra</text>
<line x1="120" y1="130" x2="120" y2="730" stroke="#777" stroke-width="1.5" stroke-dasharray="6 4"/>
<rect class="box" x="270" y="70" width="180" height="60" rx="10" ry="10"/>
<text class="label" x="360.0" y="94" text-anchor="middle" font-weight="700">StompSessionHandlerImpl</text>
<line x1="360" y1="130" x2="360" y2="730" stroke="#777" stroke-width="1.5" stroke-dasharray="6 4"/>
<rect class="box" x="550" y="70" width="180" height="60" rx="10" ry="10"/>
<text class="label" x="640.0" y="94" text-anchor="middle" font-weight="700">DoctorAssignmentEventHandler</text>
<line x1="640" y1="130" x2="640" y2="730" stroke="#777" stroke-width="1.5" stroke-dasharray="6 4"/>
<rect class="box" x="890" y="70" width="180" height="60" rx="10" ry="10"/>
<text class="label" x="980.0" y="94" text-anchor="middle" font-weight="700">AutonomousMedicalExamAssignmentService</text>
<line x1="980" y1="130" x2="980" y2="730" stroke="#777" stroke-width="1.5" stroke-dasharray="6 4"/>
<rect class="box" x="1220" y="70" width="180" height="60" rx="10" ry="10"/>
<text class="label" x="1310.0" y="94" text-anchor="middle" font-weight="700">VisitWorkflowGateway</text>
<line x1="1310" y1="130" x2="1310" y2="730" stroke="#777" stroke-width="1.5" stroke-dasharray="6 4"/>
<line class="line" x1="120" y1="170" x2="360" y2="170"/>
<rect x="155.0" y="158.0" width="170" height="20" fill="#fff"/>
<text class="small" x="240.0" y="172.0" text-anchor="middle">1. SERVICE_POINT_OPEN / SET_WORK_PROFILE</text>
<line class="line" x1="360" y1="218" x2="640" y2="218"/>
<rect x="415.0" y="206.0" width="170" height="20" fill="#fff"/>
<text class="small" x="500.0" y="220.0" text-anchor="middle">2. handle(event)</text>
<path d="M640,266 h80 v26 h-80" stroke="#444" stroke-width="2" fill="none" marker-end="url(#arrow)"/>
<text class="small" x="680" y="258" text-anchor="middle">3. deduplicate + resolve doctor context</text>
<line class="line" x1="640" y1="314" x2="980" y2="314"/>
<rect x="725.0" y="302.0" width="170" height="20" fill="#fff"/>
<text class="small" x="810.0" y="316.0" text-anchor="middle">4. process(context)</text>
<line class="line" x1="980" y1="362" x2="1310" y2="362"/>
<rect x="1060.0" y="350.0" width="170" height="20" fill="#fff"/>
<text class="small" x="1145.0" y="364.0" text-anchor="middle">5. get visits from unknown-doctor queue</text>
<line class="line" x1="1310" y1="410" x2="980" y2="410"/>
<rect x="1060.0" y="398.0" width="170" height="20" fill="#fff"/>
<text class="small" x="1145.0" y="412.0" text-anchor="middle">6. visits</text>
<line class="line" x1="980" y1="458" x2="1310" y2="458"/>
<rect x="1060.0" y="446.0" width="170" height="20" fill="#fff"/>
<text class="small" x="1145.0" y="460.0" text-anchor="middle">7. get visit details</text>
<line class="line" x1="1310" y1="506" x2="980" y2="506"/>
<rect x="1060.0" y="494.0" width="170" height="20" fill="#fff"/>
<text class="small" x="1145.0" y="508.0" text-anchor="middle">8. route / unserved services</text>
<path d="M980,554 h80 v26 h-80" stroke="#444" stroke-width="2" fill="none" marker-end="url(#arrow)"/>
<text class="small" x="1020" y="546" text-anchor="middle">9. match doctor service</text>
<line class="line" x1="980" y1="602" x2="1310" y2="602"/>
<rect x="1060.0" y="590.0" width="170" height="20" fill="#fff"/>
<text class="small" x="1145.0" y="604.0" text-anchor="middle">10. assign service to visit</text>
<line class="line" x1="980" y1="650" x2="1310" y2="650"/>
<rect x="1060.0" y="638.0" width="170" height="20" fill="#fff"/>
<text class="small" x="1145.0" y="652.0" text-anchor="middle">11. transfer visit to queue</text>
<line class="line" x1="980" y1="698" x2="640" y2="698"/>
<rect x="725.0" y="686.0" width="170" height="20" fill="#fff"/>
<text class="small" x="810.0" y="700.0" text-anchor="middle">12. processed count</text>
</svg>