<?xml version="1.0" encoding="UTF-8" standalone="no"?>
<svg xmlns="http://www.w3.org/2000/svg" width="1180" height="650" viewBox="0 0 1180 650">
  <defs>
    <marker id="arrow" markerWidth="12" markerHeight="10" refX="10" refY="5" orient="auto" markerUnits="strokeWidth">
      <path d="M 1 1 L 10 5 L 1 9" fill="none" stroke="#334155" stroke-width="1.6" stroke-linecap="round" stroke-linejoin="round"/>
    </marker>
    <marker id="triangle" markerWidth="14" markerHeight="12" refX="12" refY="6" orient="auto" markerUnits="strokeWidth">
      <path d="M 1 6 L 12 1 L 12 11 Z" fill="#F8FAFC" stroke="#334155" stroke-width="1.5"/>
    </marker>
    <marker id="green-dot" markerWidth="10" markerHeight="10" refX="5" refY="5" orient="auto">
      <circle cx="5" cy="5" r="4" fill="#16A34A"/>
    </marker>
    <filter id="card-shadow" x="-15%" y="-15%" width="130%" height="130%">
      <feDropShadow dx="0" dy="2" stdDeviation="2" flood-color="#94A3B8" flood-opacity="0.16"/>
    </filter>
  </defs>
  <rect x="0" y="0" width="1180" height="650" fill="#F8FAFC"/>
  <text x="590.0" y="34" text-anchor="middle" font-family="Segoe UI, Arial, sans-serif" font-size="21" font-weight="700" fill="#111827">Диаграмма классов доменного контура назначения</text>
<path d="M 53 114 L 53 97 Q 53 90 60 90 L 156 90 L 174 114 Z" fill="#EDE9FE" stroke="#7C3AED" stroke-width="1.4"/>
<rect x="45" y="114" width="215" height="106" rx="8" ry="8" fill="#FFFFFF" stroke="#7C3AED" stroke-width="1.4" filter="url(#card-shadow)"/>
<text x="65" y="107" text-anchor="start" font-family="Segoe UI, Arial, sans-serif" font-size="11" font-weight="700" fill="#111827" style=""><tspan x="65" dy="0">Оркестратор</tspan></text>
<rect x="78" y="138" width="150" height="64" rx="7" ry="7" fill="#FFFFFF" stroke="#0369A1" stroke-width="1.5" filter="url(#card-shadow)"/>
<rect x="78" y="138" width="150" height="32" rx="7" ry="7" fill="#DBEAFE" stroke="#0369A1" stroke-width="1.5"/>
<rect x="78" y="162" width="150" height="8" fill="#DBEAFE" stroke="none"/>
<text x="153.0" y="159" text-anchor="middle" font-family="Segoe UI, Arial, sans-serif" font-size="12" font-weight="700" fill="#111827" style=""><tspan x="153.0" dy="0">AssignmentService</tspan></text>
<line x1="78" y1="170" x2="228" y2="170" stroke="#0369A1" stroke-width="1.1"/>
<text x="90" y="189" text-anchor="start" font-family="Segoe UI, Arial, sans-serif" font-size="11" font-weight="400" fill="#111827" style=""><tspan x="90" dy="0">+ processBranch()</tspan></text>
<text x="90" y="206" text-anchor="start" font-family="Segoe UI, Arial, sans-serif" font-size="11" font-weight="400" fill="#111827" style=""><tspan x="90" dy="0">+ processDoctor()</tspan></text>
<path d="M 308 94 L 308 77 Q 308 70 315 70 L 418 70 L 436 94 Z" fill="#EDE9FE" stroke="#7C3AED" stroke-width="1.4"/>
<rect x="300" y="94" width="265" height="476" rx="8" ry="8" fill="#FFFFFF" stroke="#7C3AED" stroke-width="1.4" filter="url(#card-shadow)"/>
<text x="320" y="87" text-anchor="start" font-family="Segoe UI, Arial, sans-serif" font-size="11" font-weight="700" fill="#111827" style=""><tspan x="320" dy="0">Порты домена</tspan></text>
<rect x="325" y="116" width="215" height="58" rx="7" ry="7" fill="#FFFFFF" stroke="#64748B" stroke-width="1.5" filter="url(#card-shadow)"/>
<rect x="325" y="116" width="215" height="40" rx="7" ry="7" fill="#F1F5F9" stroke="#64748B" stroke-width="1.5"/>
<rect x="325" y="148" width="215" height="8" fill="#F1F5F9" stroke="none"/>
<text x="432.5" y="129" text-anchor="middle" font-family="Segoe UI, Arial, sans-serif" font-size="9" font-weight="400" fill="#6B7280" style=""><tspan x="432.5" dy="0">«interface»</tspan></text>
<text x="432.5" y="147" text-anchor="middle" font-family="Segoe UI, Arial, sans-serif" font-size="12" font-weight="700" fill="#111827" style=""><tspan x="432.5" dy="0">DoctorContextResolver</tspan></text>
<line x1="325" y1="156" x2="540" y2="156" stroke="#64748B" stroke-width="1.1"/>
<text x="337" y="175" text-anchor="start" font-family="Segoe UI, Arial, sans-serif" font-size="11" font-weight="400" fill="#111827" style=""><tspan x="337" dy="0">+ resolve(event)</tspan></text>
<rect x="325" y="188" width="215" height="58" rx="7" ry="7" fill="#FFFFFF" stroke="#64748B" stroke-width="1.5" filter="url(#card-shadow)"/>
<rect x="325" y="188" width="215" height="40" rx="7" ry="7" fill="#F1F5F9" stroke="#64748B" stroke-width="1.5"/>
<rect x="325" y="220" width="215" height="8" fill="#F1F5F9" stroke="none"/>
<text x="432.5" y="201" text-anchor="middle" font-family="Segoe UI, Arial, sans-serif" font-size="9" font-weight="400" fill="#6B7280" style=""><tspan x="432.5" dy="0">«interface»</tspan></text>
<text x="432.5" y="219" text-anchor="middle" font-family="Segoe UI, Arial, sans-serif" font-size="12" font-weight="700" fill="#111827" style=""><tspan x="432.5" dy="0">AvailableServicesResolver</tspan></text>
<line x1="325" y1="228" x2="540" y2="228" stroke="#64748B" stroke-width="1.1"/>
<text x="337" y="247" text-anchor="start" font-family="Segoe UI, Arial, sans-serif" font-size="11" font-weight="400" fill="#111827" style=""><tspan x="337" dy="0">+ resolve(cache, doctor)</tspan></text>
<rect x="325" y="260" width="215" height="58" rx="7" ry="7" fill="#FFFFFF" stroke="#64748B" stroke-width="1.5" filter="url(#card-shadow)"/>
<rect x="325" y="260" width="215" height="40" rx="7" ry="7" fill="#F1F5F9" stroke="#64748B" stroke-width="1.5"/>
<rect x="325" y="292" width="215" height="8" fill="#F1F5F9" stroke="none"/>
<text x="432.5" y="273" text-anchor="middle" font-family="Segoe UI, Arial, sans-serif" font-size="9" font-weight="400" fill="#6B7280" style=""><tspan x="432.5" dy="0">«interface»</tspan></text>
<text x="432.5" y="291" text-anchor="middle" font-family="Segoe UI, Arial, sans-serif" font-size="12" font-weight="700" fill="#111827" style=""><tspan x="432.5" dy="0">QueueVisitProvider</tspan></text>
<line x1="325" y1="300" x2="540" y2="300" stroke="#64748B" stroke-width="1.1"/>
<text x="337" y="319" text-anchor="start" font-family="Segoe UI, Arial, sans-serif" font-size="11" font-weight="400" fill="#111827" style=""><tspan x="337" dy="0">+ findWaitingVisits(cache)</tspan></text>
<rect x="325" y="332" width="215" height="58" rx="7" ry="7" fill="#FFFFFF" stroke="#64748B" stroke-width="1.5" filter="url(#card-shadow)"/>
<rect x="325" y="332" width="215" height="40" rx="7" ry="7" fill="#F1F5F9" stroke="#64748B" stroke-width="1.5"/>
<rect x="325" y="364" width="215" height="8" fill="#F1F5F9" stroke="none"/>
<text x="432.5" y="345" text-anchor="middle" font-family="Segoe UI, Arial, sans-serif" font-size="9" font-weight="400" fill="#6B7280" style=""><tspan x="432.5" dy="0">«interface»</tspan></text>
<text x="432.5" y="363" text-anchor="middle" font-family="Segoe UI, Arial, sans-serif" font-size="12" font-weight="700" fill="#111827" style=""><tspan x="432.5" dy="0">VisitRouteAnalyzer</tspan></text>
<line x1="325" y1="372" x2="540" y2="372" stroke="#64748B" stroke-width="1.1"/>
<text x="337" y="391" text-anchor="start" font-family="Segoe UI, Arial, sans-serif" font-size="11" font-weight="400" fill="#111827" style=""><tspan x="337" dy="0">+ unservedServices(visit)</tspan></text>
<rect x="325" y="404" width="215" height="58" rx="7" ry="7" fill="#FFFFFF" stroke="#64748B" stroke-width="1.5" filter="url(#card-shadow)"/>
<rect x="325" y="404" width="215" height="40" rx="7" ry="7" fill="#F1F5F9" stroke="#64748B" stroke-width="1.5"/>
<rect x="325" y="436" width="215" height="8" fill="#F1F5F9" stroke="none"/>
<text x="432.5" y="417" text-anchor="middle" font-family="Segoe UI, Arial, sans-serif" font-size="9" font-weight="400" fill="#6B7280" style=""><tspan x="432.5" dy="0">«interface»</tspan></text>
<text x="432.5" y="435" text-anchor="middle" font-family="Segoe UI, Arial, sans-serif" font-size="12" font-weight="700" fill="#111827" style=""><tspan x="432.5" dy="0">SelectionService</tspan></text>
<line x1="325" y1="444" x2="540" y2="444" stroke="#64748B" stroke-width="1.1"/>
<text x="337" y="463" text-anchor="start" font-family="Segoe UI, Arial, sans-serif" font-size="11" font-weight="400" fill="#111827" style=""><tspan x="337" dy="0">+ select(...)</tspan></text>
<rect x="325" y="476" width="215" height="58" rx="7" ry="7" fill="#FFFFFF" stroke="#64748B" stroke-width="1.5" filter="url(#card-shadow)"/>
<rect x="325" y="476" width="215" height="40" rx="7" ry="7" fill="#F1F5F9" stroke="#64748B" stroke-width="1.5"/>
<rect x="325" y="508" width="215" height="8" fill="#F1F5F9" stroke="none"/>
<text x="432.5" y="489" text-anchor="middle" font-family="Segoe UI, Arial, sans-serif" font-size="9" font-weight="400" fill="#6B7280" style=""><tspan x="432.5" dy="0">«interface»</tspan></text>
<text x="432.5" y="507" text-anchor="middle" font-family="Segoe UI, Arial, sans-serif" font-size="12" font-weight="700" fill="#111827" style=""><tspan x="432.5" dy="0">AssignmentExecutor</tspan></text>
<line x1="325" y1="516" x2="540" y2="516" stroke="#64748B" stroke-width="1.1"/>
<text x="337" y="535" text-anchor="start" font-family="Segoe UI, Arial, sans-serif" font-size="11" font-weight="400" fill="#111827" style=""><tspan x="337" dy="0">+ assignAndTransfer(...)</tspan></text>
<path d="M 628 114 L 628 97 Q 628 90 635 90 L 724 90 L 742 114 Z" fill="#EDE9FE" stroke="#7C3AED" stroke-width="1.4"/>
<rect x="620" y="114" width="235" height="251" rx="8" ry="8" fill="#FFFFFF" stroke="#7C3AED" stroke-width="1.4" filter="url(#card-shadow)"/>
<text x="640" y="107" text-anchor="start" font-family="Segoe UI, Arial, sans-serif" font-size="11" font-weight="700" fill="#111827" style=""><tspan x="640" dy="0">Реализации</tspan></text>
<rect x="655" y="135" width="165" height="58" rx="7" ry="7" fill="#FFFFFF" stroke="#0369A1" stroke-width="1.5" filter="url(#card-shadow)"/>
<rect x="655" y="135" width="165" height="32" rx="7" ry="7" fill="#EFF6FF" stroke="#0369A1" stroke-width="1.5"/>
<rect x="655" y="159" width="165" height="8" fill="#EFF6FF" stroke="none"/>
<text x="737.5" y="156" text-anchor="middle" font-family="Segoe UI, Arial, sans-serif" font-size="12" font-weight="700" fill="#111827" style=""><tspan x="737.5" dy="0">DefaultMatcher</tspan></text>
<line x1="655" y1="167" x2="820" y2="167" stroke="#0369A1" stroke-width="1.1"/>
<text x="667" y="186" text-anchor="start" font-family="Segoe UI, Arial, sans-serif" font-size="11" font-weight="400" fill="#111827" style=""><tspan x="667" dy="0">+ match(...)</tspan></text>
<rect x="655" y="215" width="165" height="82" rx="7" ry="7" fill="#FFFFFF" stroke="#0369A1" stroke-width="1.5" filter="url(#card-shadow)"/>
<rect x="655" y="215" width="165" height="32" rx="7" ry="7" fill="#EFF6FF" stroke="#0369A1" stroke-width="1.5"/>
<rect x="655" y="239" width="165" height="8" fill="#EFF6FF" stroke="none"/>
<text x="737.5" y="236" text-anchor="middle" font-family="Segoe UI, Arial, sans-serif" font-size="12" font-weight="700" fill="#111827" style=""><tspan x="737.5" dy="0">MedRobotAwareSelection</tspan></text>
<line x1="655" y1="247" x2="820" y2="247" stroke="#0369A1" stroke-width="1.1"/>
<text x="667" y="266" text-anchor="start" font-family="Segoe UI, Arial, sans-serif" font-size="11" font-weight="400" fill="#111827" style=""><tspan x="667" dy="0">- fallbackMode</tspan></text>
<text x="667" y="283" text-anchor="start" font-family="Segoe UI, Arial, sans-serif" font-size="11" font-weight="400" fill="#111827" style=""><tspan x="667" dy="0">- robotGateway</tspan></text>
<text x="667" y="300" text-anchor="start" font-family="Segoe UI, Arial, sans-serif" font-size="11" font-weight="400" fill="#111827" style=""><tspan x="667" dy="0">+ select(...)</tspan></text>
<rect x="655" y="315" width="165" height="72" rx="7" ry="7" fill="#FFFFFF" stroke="#0369A1" stroke-width="1.5" filter="url(#card-shadow)"/>
<rect x="655" y="315" width="165" height="32" rx="7" ry="7" fill="#EFF6FF" stroke="#0369A1" stroke-width="1.5"/>
<rect x="655" y="339" width="165" height="8" fill="#EFF6FF" stroke="none"/>
<text x="737.5" y="336" text-anchor="middle" font-family="Segoe UI, Arial, sans-serif" font-size="12" font-weight="700" fill="#111827" style=""><tspan x="737.5" dy="0">DefaultExecutor</tspan></text>
<line x1="655" y1="347" x2="820" y2="347" stroke="#0369A1" stroke-width="1.1"/>
<text x="667" y="366" text-anchor="start" font-family="Segoe UI, Arial, sans-serif" font-size="11" font-weight="400" fill="#111827" style=""><tspan x="667" dy="0">+ assignService()</tspan></text>
<text x="667" y="383" text-anchor="start" font-family="Segoe UI, Arial, sans-serif" font-size="11" font-weight="400" fill="#111827" style=""><tspan x="667" dy="0">+ transferVisit()</tspan></text>
<path d="M 908 114 L 908 97 Q 908 90 915 90 L 1004 90 L 1022 114 Z" fill="#EDE9FE" stroke="#7C3AED" stroke-width="1.4"/>
<rect x="900" y="114" width="220" height="111" rx="8" ry="8" fill="#FFFFFF" stroke="#7C3AED" stroke-width="1.4" filter="url(#card-shadow)"/>
<text x="920" y="107" text-anchor="start" font-family="Segoe UI, Arial, sans-serif" font-size="11" font-weight="700" fill="#111827" style=""><tspan x="920" dy="0">Интеграция</tspan></text>
<rect x="930" y="138" width="160" height="58" rx="7" ry="7" fill="#FFFFFF" stroke="#64748B" stroke-width="1.5" filter="url(#card-shadow)"/>
<rect x="930" y="138" width="160" height="40" rx="7" ry="7" fill="#F1F5F9" stroke="#64748B" stroke-width="1.5"/>
<rect x="930" y="170" width="160" height="8" fill="#F1F5F9" stroke="none"/>
<text x="1010.0" y="151" text-anchor="middle" font-family="Segoe UI, Arial, sans-serif" font-size="9" font-weight="400" fill="#6B7280" style=""><tspan x="1010.0" dy="0">«interface»</tspan></text>
<text x="1010.0" y="169" text-anchor="middle" font-family="Segoe UI, Arial, sans-serif" font-size="12" font-weight="700" fill="#111827" style=""><tspan x="1010.0" dy="0">MedRobotGateway</tspan></text>
<line x1="930" y1="178" x2="1090" y2="178" stroke="#64748B" stroke-width="1.1"/>
<text x="942" y="197" text-anchor="start" font-family="Segoe UI, Arial, sans-serif" font-size="11" font-weight="400" fill="#111827" style=""><tspan x="942" dy="0">+ selectOptimal()</tspan></text>
<path d="M 608 444 L 608 427 Q 608 420 615 420 L 718 420 L 736 444 Z" fill="#EDE9FE" stroke="#7C3AED" stroke-width="1.4"/>
<rect x="600" y="444" width="520" height="106" rx="8" ry="8" fill="#FFFFFF" stroke="#7C3AED" stroke-width="1.4" filter="url(#card-shadow)"/>
<text x="620" y="437" text-anchor="start" font-family="Segoe UI, Arial, sans-serif" font-size="11" font-weight="700" fill="#111827" style=""><tspan x="620" dy="0">Модели и кэш</tspan></text>
<rect x="630" y="468" width="145" height="58" rx="7" ry="7" fill="#FFFFFF" stroke="#15803D" stroke-width="1.5" filter="url(#card-shadow)"/>
<rect x="630" y="468" width="145" height="32" rx="7" ry="7" fill="#DCFCE7" stroke="#15803D" stroke-width="1.5"/>
<rect x="630" y="492" width="145" height="8" fill="#DCFCE7" stroke="none"/>
<text x="702.5" y="489" text-anchor="middle" font-family="Segoe UI, Arial, sans-serif" font-size="12" font-weight="700" fill="#111827" style=""><tspan x="702.5" dy="0">BranchCache</tspan></text>
<line x1="630" y1="500" x2="775" y2="500" stroke="#15803D" stroke-width="1.1"/>
<text x="642" y="519" text-anchor="start" font-family="Segoe UI, Arial, sans-serif" font-size="11" font-weight="400" fill="#111827" style=""><tspan x="642" dy="0">+ serviceById</tspan></text>
<text x="642" y="536" text-anchor="start" font-family="Segoe UI, Arial, sans-serif" font-size="11" font-weight="400" fill="#111827" style=""><tspan x="642" dy="0">+ queueByServiceId</tspan></text>
<rect x="800" y="468" width="130" height="58" rx="7" ry="7" fill="#FFFFFF" stroke="#15803D" stroke-width="1.5" filter="url(#card-shadow)"/>
<rect x="800" y="468" width="130" height="32" rx="7" ry="7" fill="#DCFCE7" stroke="#15803D" stroke-width="1.5"/>
<rect x="800" y="492" width="130" height="8" fill="#DCFCE7" stroke="none"/>
<text x="865.0" y="489" text-anchor="middle" font-family="Segoe UI, Arial, sans-serif" font-size="12" font-weight="700" fill="#111827" style=""><tspan x="865.0" dy="0">VisitDetails</tspan></text>
<line x1="800" y1="500" x2="930" y2="500" stroke="#15803D" stroke-width="1.1"/>
<text x="812" y="519" text-anchor="start" font-family="Segoe UI, Arial, sans-serif" font-size="11" font-weight="400" fill="#111827" style=""><tspan x="812" dy="0">+ visitId</tspan></text>
<text x="812" y="536" text-anchor="start" font-family="Segoe UI, Arial, sans-serif" font-size="11" font-weight="400" fill="#111827" style=""><tspan x="812" dy="0">+ unservedServices</tspan></text>
<rect x="955" y="468" width="130" height="58" rx="7" ry="7" fill="#FFFFFF" stroke="#15803D" stroke-width="1.5" filter="url(#card-shadow)"/>
<rect x="955" y="468" width="130" height="32" rx="7" ry="7" fill="#DCFCE7" stroke="#15803D" stroke-width="1.5"/>
<rect x="955" y="492" width="130" height="8" fill="#DCFCE7" stroke="none"/>
<text x="1020.0" y="489" text-anchor="middle" font-family="Segoe UI, Arial, sans-serif" font-size="12" font-weight="700" fill="#111827" style=""><tspan x="1020.0" dy="0">SelectedService</tspan></text>
<line x1="955" y1="500" x2="1085" y2="500" stroke="#15803D" stroke-width="1.1"/>
<text x="967" y="519" text-anchor="start" font-family="Segoe UI, Arial, sans-serif" font-size="11" font-weight="400" fill="#111827" style=""><tspan x="967" dy="0">+ serviceId</tspan></text>
<text x="967" y="536" text-anchor="start" font-family="Segoe UI, Arial, sans-serif" font-size="11" font-weight="400" fill="#111827" style=""><tspan x="967" dy="0">+ queueId</tspan></text>
<path d="M 228 170 L 280 170 L 280 145.0 L 325 145.0" fill="none" stroke="#334155" stroke-width="1.35" stroke-linecap="round" stroke-linejoin="round" stroke-dasharray="6 5" marker-end="url(#arrow)"/>
<text x="273" y="138.0" text-anchor="end" font-family="Segoe UI, Arial, sans-serif" font-size="9" font-weight="400" fill="#4B5563" style=""><tspan x="273" dy="0">исп.</tspan></text>
<path d="M 228 170 L 280 170 L 280 217.0 L 325 217.0" fill="none" stroke="#334155" stroke-width="1.35" stroke-linecap="round" stroke-linejoin="round" stroke-dasharray="6 5" marker-end="url(#arrow)"/>
<text x="273" y="210.0" text-anchor="end" font-family="Segoe UI, Arial, sans-serif" font-size="9" font-weight="400" fill="#4B5563" style=""><tspan x="273" dy="0">исп.</tspan></text>
<path d="M 228 170 L 280 170 L 280 289.0 L 325 289.0" fill="none" stroke="#334155" stroke-width="1.35" stroke-linecap="round" stroke-linejoin="round" stroke-dasharray="6 5" marker-end="url(#arrow)"/>
<text x="273" y="282.0" text-anchor="end" font-family="Segoe UI, Arial, sans-serif" font-size="9" font-weight="400" fill="#4B5563" style=""><tspan x="273" dy="0">исп.</tspan></text>
<path d="M 228 170 L 280 170 L 280 361.0 L 325 361.0" fill="none" stroke="#334155" stroke-width="1.35" stroke-linecap="round" stroke-linejoin="round" stroke-dasharray="6 5" marker-end="url(#arrow)"/>
<text x="273" y="354.0" text-anchor="end" font-family="Segoe UI, Arial, sans-serif" font-size="9" font-weight="400" fill="#4B5563" style=""><tspan x="273" dy="0">исп.</tspan></text>
<path d="M 228 170 L 280 170 L 280 433.0 L 325 433.0" fill="none" stroke="#334155" stroke-width="1.35" stroke-linecap="round" stroke-linejoin="round" stroke-dasharray="6 5" marker-end="url(#arrow)"/>
<text x="273" y="426.0" text-anchor="end" font-family="Segoe UI, Arial, sans-serif" font-size="9" font-weight="400" fill="#4B5563" style=""><tspan x="273" dy="0">исп.</tspan></text>
<path d="M 228 170 L 280 170 L 280 505.0 L 325 505.0" fill="none" stroke="#334155" stroke-width="1.35" stroke-linecap="round" stroke-linejoin="round" stroke-dasharray="6 5" marker-end="url(#arrow)"/>
<text x="273" y="498.0" text-anchor="end" font-family="Segoe UI, Arial, sans-serif" font-size="9" font-weight="400" fill="#4B5563" style=""><tspan x="273" dy="0">исп.</tspan></text>
<path d="M 655 256 L 590 256 L 590 332 L 540 332" fill="none" stroke="#334155" stroke-width="1.35" stroke-linecap="round" stroke-linejoin="round" stroke-dasharray="6 5" marker-end="url(#triangle)"/>
<text x="585" y="250" text-anchor="end" font-family="Segoe UI, Arial, sans-serif" font-size="10" font-weight="400" fill="#4B5563" style=""><tspan x="585" dy="0">реализует</tspan></text>
<path d="M 655 350 L 585 350 L 585 404 L 540 404" fill="none" stroke="#334155" stroke-width="1.35" stroke-linecap="round" stroke-linejoin="round" stroke-dasharray="6 5" marker-end="url(#triangle)"/>
<text x="582" y="382" text-anchor="end" font-family="Segoe UI, Arial, sans-serif" font-size="10" font-weight="400" fill="#4B5563" style=""><tspan x="582" dy="0">реализует</tspan></text>
<path d="M 738 215 L 738 193" fill="none" stroke="#334155" stroke-width="1.35" stroke-linecap="round" stroke-linejoin="round" stroke-dasharray="6 5" marker-end="url(#arrow)"/>
<text x="775" y="210" text-anchor="start" font-family="Segoe UI, Arial, sans-serif" font-size="9" font-weight="400" fill="#4B5563" style=""><tspan x="775" dy="0">исп.</tspan></text>
<path d="M 820 256 L 930 167" fill="none" stroke="#334155" stroke-width="1.35" stroke-linecap="round" stroke-linejoin="round" stroke-dasharray="6 5" marker-end="url(#arrow)"/>
<text x="875" y="210" text-anchor="middle" font-family="Segoe UI, Arial, sans-serif" font-size="10" font-weight="400" fill="#4B5563" style=""><tspan x="875" dy="0">вызывает</tspan></text>
<path d="M 738 297 L 738 468" fill="none" stroke="#334155" stroke-width="1.35" stroke-linecap="round" stroke-linejoin="round" stroke-dasharray="6 5" marker-end="url(#arrow)"/>
<text x="760" y="390" text-anchor="start" font-family="Segoe UI, Arial, sans-serif" font-size="10" font-weight="400" fill="#4B5563" style=""><tspan x="760" dy="0">читает</tspan></text>
<path d="M 540 361 L 800 497" fill="none" stroke="#334155" stroke-width="1.35" stroke-linecap="round" stroke-linejoin="round" stroke-dasharray="6 5" marker-end="url(#arrow)"/>
<text x="630" y="405" text-anchor="middle" font-family="Segoe UI, Arial, sans-serif" font-size="10" font-weight="400" fill="#4B5563" style=""><tspan x="630" dy="0">формирует</tspan></text>
<path d="M 820 256 L 955 497" fill="none" stroke="#334155" stroke-width="1.35" stroke-linecap="round" stroke-linejoin="round" marker-end="url(#arrow)"/>
<text x="905" y="390" text-anchor="start" font-family="Segoe UI, Arial, sans-serif" font-size="10" font-weight="400" fill="#4B5563" style=""><tspan x="905" dy="0">возвращает</tspan></text>
<rect x="700" y="585" width="380" height="38" rx="7" ry="7" fill="#FEF3C7" stroke="#B45309" stroke-width="1.2" filter="url(#card-shadow)"/>
<text x="714" y="609" text-anchor="start" font-family="Segoe UI, Arial, sans-serif" font-size="12" font-weight="400" fill="#111827" style=""><tspan x="714" dy="0">Домен связан с REST только через порты; кэш является входной моделью алгоритма.</tspan></text>
</svg>
