<svg xmlns="http://www.w3.org/2000/svg" width="980" height="980" viewBox="0 0 980 980" role="img" aria-label="Отказы и восстановление без остановки цикла">
<defs>
  <marker id="arrow" viewBox="0 0 10 10" refX="9" refY="5" markerWidth="8" markerHeight="8" orient="auto-start-reverse"><path d="M 0 0 L 10 5 L 0 10 z" fill="#334155"/></marker>
  <marker id="arrow-dashed" viewBox="0 0 10 10" refX="9" refY="5" markerWidth="8" markerHeight="8" orient="auto-start-reverse"><path d="M 0 0 L 10 5 L 0 10 z" fill="#64748B"/></marker>
</defs>
<rect x="0.0" y="0.0" width="980.0" height="980.0" rx="0.0" fill="#FFFFFF" stroke="none" stroke-width="1"/>
<rect x="24.0" y="24.0" width="932.0" height="932.0" rx="18.0" fill="#F8FAFC" stroke="#E2E8F0" stroke-width="1"/>
<text x="490.0" y="60.0" text-anchor="middle" font-family="Segoe UI, Arial, sans-serif" font-size="25" font-weight="700" fill="#0F172A" >Отказы и восстановление без остановки цикла</text>
<circle cx="490" cy="120" r="12" fill="#334155"/>
<rect x="370.0" y="160.0" width="240.0" height="62.0" rx="18.0" fill="#E0F2FE" stroke="#0369A1" stroke-width="1.6"/>
<text x="490.0" y="186.0" text-anchor="middle" font-family="Segoe UI, Arial, sans-serif" font-size="14" font-weight="600" fill="#0F172A">
<tspan x="490.0" dy="0">Триггер</tspan>
<tspan x="490.0" dy="18">событие или cron</tspan>
</text>
<rect x="350.0" y="255.0" width="280.0" height="62.0" rx="18.0" fill="#E0F2FE" stroke="#0369A1" stroke-width="1.6"/>
<text x="490.0" y="281.0" text-anchor="middle" font-family="Segoe UI, Arial, sans-serif" font-size="14" font-weight="600" fill="#0F172A">
<tspan x="490.0" dy="0">BranchLockManager</tspan>
<tspan x="490.0" dy="18">занять branch</tspan>
</text>
<path d="M 490.0 340.0 L 600.0 390.0 L 490.0 440.0 L 380.0 390.0 Z" fill="#FEF3C7" stroke="#B45309" stroke-width="1.6"/>
<text x="490.0" y="394.0" text-anchor="middle" font-family="Segoe UI, Arial, sans-serif" font-size="13" font-weight="600" fill="#0F172A">
<tspan x="490.0" dy="0">Кэш доступен?</tspan>
</text>
<rect x="610.0" y="480.0" width="270.0" height="70.0" rx="18.0" fill="#F1F5F9" stroke="#0369A1" stroke-width="1.6"/>
<text x="745.0" y="510.0" text-anchor="middle" font-family="Segoe UI, Arial, sans-serif" font-size="14" font-weight="600" fill="#0F172A">
<tspan x="745.0" dy="0">Пропустить запуск</tspan>
<tspan x="745.0" dy="18">warning в лог</tspan>
</text>
<rect x="210.0" y="480.0" width="280.0" height="70.0" rx="18.0" fill="#E0F2FE" stroke="#0369A1" stroke-width="1.6"/>
<text x="350.0" y="501.0" text-anchor="middle" font-family="Segoe UI, Arial, sans-serif" font-size="14" font-weight="600" fill="#0F172A">
<tspan x="350.0" dy="0">Выбрать визит</tspan>
<tspan x="350.0" dy="18">из unknown-doctor</tspan>
<tspan x="350.0" dy="18">queue</tspan>
</text>
<path d="M 350.0 575.0 L 475.0 630.0 L 350.0 685.0 L 225.0 630.0 Z" fill="#FEF3C7" stroke="#B45309" stroke-width="1.6"/>
<text x="350.0" y="625.5" text-anchor="middle" font-family="Segoe UI, Arial, sans-serif" font-size="13" font-weight="600" fill="#0F172A">
<tspan x="350.0" dy="0">REST-мутация</tspan>
<tspan x="350.0" dy="17">успешна?</tspan>
</text>
<rect x="140.0" y="760.0" width="240.0" height="65.0" rx="18.0" fill="#E0F2FE" stroke="#0369A1" stroke-width="1.6"/>
<text x="260.0" y="787.5" text-anchor="middle" font-family="Segoe UI, Arial, sans-serif" font-size="14" font-weight="600" fill="#0F172A">
<tspan x="260.0" dy="0">Processed</tspan>
<tspan x="260.0" dy="18">следующий визит</tspan>
</text>
<path d="M 575.0 580.0 L 685.0 630.0 L 575.0 680.0 L 465.0 630.0 Z" fill="#FEF3C7" stroke="#B45309" stroke-width="1.6"/>
<text x="575.0" y="634.0" text-anchor="middle" font-family="Segoe UI, Arial, sans-serif" font-size="13" font-weight="600" fill="#0F172A">
<tspan x="575.0" dy="0">403 / userState?</tspan>
</text>
<rect x="520.0" y="760.0" width="260.0" height="65.0" rx="18.0" fill="#F1F5F9" stroke="#0369A1" stroke-width="1.6"/>
<text x="650.0" y="787.5" text-anchor="middle" font-family="Segoe UI, Arial, sans-serif" font-size="14" font-weight="600" fill="#0F172A">
<tspan x="650.0" dy="0">Завершить branch</tspan>
<tspan x="650.0" dy="18">без серии повторов</tspan>
</text>
<rect x="660.0" y="625.0" width="240.0" height="65.0" rx="18.0" fill="#E0F2FE" stroke="#0369A1" stroke-width="1.6"/>
<text x="780.0" y="652.5" text-anchor="middle" font-family="Segoe UI, Arial, sans-serif" font-size="14" font-weight="600" fill="#0F172A">
<tspan x="780.0" dy="0">Fallback</tspan>
<tspan x="780.0" dy="18">или следующий визит</tspan>
</text>
<circle cx="490" cy="900" r="13" fill="#FFFFFF" stroke="#334155" stroke-width="2"/><circle cx="490" cy="900" r="7" fill="#334155"/>
<path d="M 490.0 132.0 L 490.0 160.0" fill="none" stroke="#334155" stroke-width="1.6" marker-end="url(#arrow)"/>
<path d="M 490.0 222.0 L 490.0 255.0" fill="none" stroke="#334155" stroke-width="1.6" marker-end="url(#arrow)"/>
<path d="M 490.0 317.0 L 490.0 340.0" fill="none" stroke="#334155" stroke-width="1.6" marker-end="url(#arrow)"/>
<path d="M 600.0 390.0 L 745.0 480.0" fill="none" stroke="#334155" stroke-width="1.6" marker-end="url(#arrow)"/>
<text x="672.5" y="427.0" text-anchor="middle" font-family="Segoe UI, Arial, sans-serif" font-size="13" font-weight="400" fill="#64748B" >нет</text>
<path d=" M 490.0 440.0 L 350.0 440.0 L 350.0 480.0" fill="none" stroke="#334155" stroke-width="1.6" stroke-linejoin="round" stroke-linecap="round" marker-end="url(#arrow)"/>
<text x="350.0" y="460.0" text-anchor="middle" font-family="Segoe UI, Arial, sans-serif" font-size="13" font-weight="400" fill="#64748B" >да</text>
<path d="M 350.0 550.0 L 350.0 575.0" fill="none" stroke="#334155" stroke-width="1.6" marker-end="url(#arrow)"/>
<path d=" M 350.0 685.0 L 260.0 685.0 L 260.0 760.0" fill="none" stroke="#334155" stroke-width="1.6" stroke-linejoin="round" stroke-linecap="round" marker-end="url(#arrow)"/>
<text x="260.0" y="722.5" text-anchor="middle" font-family="Segoe UI, Arial, sans-serif" font-size="13" font-weight="400" fill="#64748B" >да</text>
<path d="M 475.0 630.0 L 485.0 630.0" fill="none" stroke="#334155" stroke-width="1.6" marker-end="url(#arrow)"/>
<text x="480.0" y="622.0" text-anchor="middle" font-family="Segoe UI, Arial, sans-serif" font-size="13" font-weight="400" fill="#64748B" >нет</text>
<path d=" M 575.0 680.0 L 650.0 680.0 L 650.0 760.0" fill="none" stroke="#334155" stroke-width="1.6" stroke-linejoin="round" stroke-linecap="round" marker-end="url(#arrow)"/>
<text x="650.0" y="720.0" text-anchor="middle" font-family="Segoe UI, Arial, sans-serif" font-size="13" font-weight="400" fill="#64748B" >да</text>
<path d="M 685.0 630.0 L 660.0 655.0" fill="none" stroke="#334155" stroke-width="1.6" marker-end="url(#arrow)"/>
<text x="672.5" y="634.5" text-anchor="middle" font-family="Segoe UI, Arial, sans-serif" font-size="13" font-weight="400" fill="#64748B" >нет</text>
<path d="M 745.0 550.0 L 745.0 625.0" fill="none" stroke="#334155" stroke-width="1.6" marker-end="url(#arrow)"/>
<path d=" M 260.0 825.0 L 260.0 900.0 L 490.0 900.0" fill="none" stroke="#334155" stroke-width="1.6" stroke-linejoin="round" stroke-linecap="round" marker-end="url(#arrow)"/>
<path d=" M 650.0 825.0 L 650.0 900.0 L 490.0 900.0" fill="none" stroke="#334155" stroke-width="1.6" stroke-linejoin="round" stroke-linecap="round" marker-end="url(#arrow)"/>
</svg>
