<svg xmlns="http://www.w3.org/2000/svg" width="1120" height="980" viewBox="0 0 1120 980" role="img" aria-label="Процесс работы по зонам ответственности">
<defs>
  <marker id="arrow" viewBox="0 0 10 10" refX="9" refY="5" markerWidth="8" markerHeight="8" orient="auto-start-reverse"><path d="M 0 0 L 10 5 L 0 10 z" fill="#334155"/></marker>
  <marker id="arrow-dashed" viewBox="0 0 10 10" refX="9" refY="5" markerWidth="8" markerHeight="8" orient="auto-start-reverse"><path d="M 0 0 L 10 5 L 0 10 z" fill="#64748B"/></marker>
</defs>
<rect x="0.0" y="0.0" width="1120.0" height="980.0" rx="0.0" fill="#FFFFFF" stroke="none" stroke-width="1"/>
<rect x="24.0" y="24.0" width="1072.0" height="932.0" rx="18.0" fill="#F8FAFC" stroke="#E2E8F0" stroke-width="1"/>
<text x="560.0" y="60.0" text-anchor="middle" font-family="Segoe UI, Arial, sans-serif" font-size="25" font-weight="700" fill="#0F172A" >Процесс работы по зонам ответственности</text>
<rect x="80.0" y="120.0" width="250.0" height="760.0" rx="12.0" fill="#FFFFFF" stroke="#CBD5E1" stroke-width="1.3"/>
<text x="205.0" y="150.0" text-anchor="middle" font-family="Segoe UI, Arial, sans-serif" font-size="16" font-weight="700" fill="#475569" >Orchestra</text>
<rect x="330.0" y="120.0" width="320.0" height="760.0" rx="12.0" fill="#FFFFFF" stroke="#CBD5E1" stroke-width="1.3"/>
<text x="490.0" y="150.0" text-anchor="middle" font-family="Segoe UI, Arial, sans-serif" font-size="16" font-weight="700" fill="#475569" >Doctor Assistant</text>
<rect x="650.0" y="120.0" width="220.0" height="760.0" rx="12.0" fill="#FFFFFF" stroke="#CBD5E1" stroke-width="1.3"/>
<text x="760.0" y="150.0" text-anchor="middle" font-family="Segoe UI, Arial, sans-serif" font-size="16" font-weight="700" fill="#475569" >med-robot</text>
<rect x="870.0" y="120.0" width="210.0" height="760.0" rx="12.0" fill="#FFFFFF" stroke="#CBD5E1" stroke-width="1.3"/>
<text x="975.0" y="150.0" text-anchor="middle" font-family="Segoe UI, Arial, sans-serif" font-size="16" font-weight="700" fill="#475569" >Orchestra REST</text>
<circle cx="205" cy="200" r="12" fill="#334155"/>
<rect x="120.0" y="235.0" width="170.0" height="60.0" rx="18.0" fill="#E0F2FE" stroke="#0369A1" stroke-width="1.6"/>
<text x="205.0" y="260.0" text-anchor="middle" font-family="Segoe UI, Arial, sans-serif" font-size="14" font-weight="600" fill="#0F172A">
<tspan x="205.0" dy="0">Врач занимает</tspan>
<tspan x="205.0" dy="18">рабочее место</tspan>
</text>
<rect x="120.0" y="330.0" width="170.0" height="60.0" rx="18.0" fill="#E0F2FE" stroke="#0369A1" stroke-width="1.6"/>
<text x="205.0" y="355.0" text-anchor="middle" font-family="Segoe UI, Arial, sans-serif" font-size="14" font-weight="600" fill="#0F172A">
<tspan x="205.0" dy="0">Публикация</tspan>
<tspan x="205.0" dy="18">событий</tspan>
</text>
<rect x="390.0" y="330.0" width="200.0" height="60.0" rx="18.0" fill="#E0F2FE" stroke="#0369A1" stroke-width="1.6"/>
<text x="490.0" y="355.0" text-anchor="middle" font-family="Segoe UI, Arial, sans-serif" font-size="14" font-weight="600" fill="#0F172A">
<tspan x="490.0" dy="0">Корреляция</tspan>
<tspan x="490.0" dy="18">событий</tspan>
</text>
<rect x="390.0" y="425.0" width="200.0" height="60.0" rx="18.0" fill="#E0F2FE" stroke="#0369A1" stroke-width="1.6"/>
<text x="490.0" y="450.0" text-anchor="middle" font-family="Segoe UI, Arial, sans-serif" font-size="14" font-weight="600" fill="#0F172A">
<tspan x="490.0" dy="0">Контекст</tspan>
<tspan x="490.0" dy="18">врача</tspan>
</text>
<rect x="390.0" y="520.0" width="200.0" height="60.0" rx="18.0" fill="#E0F2FE" stroke="#0369A1" stroke-width="1.6"/>
<text x="490.0" y="545.0" text-anchor="middle" font-family="Segoe UI, Arial, sans-serif" font-size="14" font-weight="600" fill="#0F172A">
<tspan x="490.0" dy="0">Локальный</tspan>
<tspan x="490.0" dy="18">кэш</tspan>
</text>
<path d="M 490.0 622.0 L 585.0 665.0 L 490.0 708.0 L 395.0 665.0 Z" fill="#FEF3C7" stroke="#B45309" stroke-width="1.6"/>
<text x="490.0" y="669.0" text-anchor="middle" font-family="Segoe UI, Arial, sans-serif" font-size="13" font-weight="600" fill="#0F172A">
<tspan x="490.0" dy="0">robot enabled?</tspan>
</text>
<rect x="675.0" y="720.0" width="170.0" height="60.0" rx="18.0" fill="#E0F2FE" stroke="#0369A1" stroke-width="1.6"/>
<text x="760.0" y="745.0" text-anchor="middle" font-family="Segoe UI, Arial, sans-serif" font-size="14" font-weight="600" fill="#0F172A">
<tspan x="760.0" dy="0">Выбор</tspan>
<tspan x="760.0" dy="18">решения</tspan>
</text>
<rect x="405.0" y="805.0" width="170.0" height="60.0" rx="18.0" fill="#E0F2FE" stroke="#0369A1" stroke-width="1.6"/>
<text x="490.0" y="830.0" text-anchor="middle" font-family="Segoe UI, Arial, sans-serif" font-size="14" font-weight="600" fill="#0F172A">
<tspan x="490.0" dy="0">Fallback /</tspan>
<tspan x="490.0" dy="18">валидация</tspan>
</text>
<rect x="405.0" y="720.0" width="170.0" height="60.0" rx="18.0" fill="#E0F2FE" stroke="#0369A1" stroke-width="1.6"/>
<text x="490.0" y="745.0" text-anchor="middle" font-family="Segoe UI, Arial, sans-serif" font-size="14" font-weight="600" fill="#0F172A">
<tspan x="490.0" dy="0">Локальный</tspan>
<tspan x="490.0" dy="18">выбор</tspan>
</text>
<rect x="895.0" y="805.0" width="160.0" height="60.0" rx="18.0" fill="#E0F2FE" stroke="#0369A1" stroke-width="1.6"/>
<text x="975.0" y="830.0" text-anchor="middle" font-family="Segoe UI, Arial, sans-serif" font-size="14" font-weight="600" fill="#0F172A">
<tspan x="975.0" dy="0">assign-service</tspan>
<tspan x="975.0" dy="18">если нужен</tspan>
</text>
<rect x="895.0" y="890.0" width="160.0" height="60.0" rx="18.0" fill="#E0F2FE" stroke="#0369A1" stroke-width="1.6"/>
<text x="975.0" y="915.0" text-anchor="middle" font-family="Segoe UI, Arial, sans-serif" font-size="14" font-weight="600" fill="#0F172A">
<tspan x="975.0" dy="0">transfer-visit</tspan>
<tspan x="975.0" dy="18">в очередь</tspan>
</text>
<circle cx="975" cy="955" r="13" fill="#FFFFFF" stroke="#334155" stroke-width="2"/><circle cx="975" cy="955" r="7" fill="#334155"/>
<path d="M 205.0 212.0 L 205.0 235.0" fill="none" stroke="#334155" stroke-width="1.6" marker-end="url(#arrow)"/>
<path d="M 205.0 295.0 L 205.0 330.0" fill="none" stroke="#334155" stroke-width="1.6" marker-end="url(#arrow)"/>
<path d="M 290.0 360.0 L 390.0 360.0" fill="none" stroke="#334155" stroke-width="1.6" marker-end="url(#arrow)"/>
<path d="M 490.0 390.0 L 490.0 425.0" fill="none" stroke="#334155" stroke-width="1.6" marker-end="url(#arrow)"/>
<path d="M 490.0 485.0 L 490.0 520.0" fill="none" stroke="#334155" stroke-width="1.6" marker-end="url(#arrow)"/>
<path d="M 490.0 580.0 L 490.0 622.0" fill="none" stroke="#334155" stroke-width="1.6" marker-end="url(#arrow)"/>
<path d=" M 585.0 665.0 L 760.0 665.0 L 760.0 720.0" fill="none" stroke="#334155" stroke-width="1.6" stroke-linejoin="round" stroke-linecap="round" marker-end="url(#arrow)"/>
<text x="760.0" y="692.5" text-anchor="middle" font-family="Segoe UI, Arial, sans-serif" font-size="13" font-weight="400" fill="#64748B" >да</text>
<path d="M 490.0 708.0 L 490.0 720.0" fill="none" stroke="#334155" stroke-width="1.6" marker-end="url(#arrow)"/>
<text x="490.0" y="706.0" text-anchor="middle" font-family="Segoe UI, Arial, sans-serif" font-size="13" font-weight="400" fill="#64748B" >нет</text>
<path d=" M 760.0 780.0 L 760.0 835.0 L 490.0 805.0" fill="none" stroke="#334155" stroke-width="1.6" stroke-linejoin="round" stroke-linecap="round" marker-end="url(#arrow)"/>
<path d="M 575.0 835.0 L 895.0 835.0" fill="none" stroke="#334155" stroke-width="1.6" marker-end="url(#arrow)"/>
<path d="M 975.0 865.0 L 975.0 890.0" fill="none" stroke="#334155" stroke-width="1.6" marker-end="url(#arrow)"/>
<path d="M 975.0 950.0 L 975.0 955.0" fill="none" stroke="#334155" stroke-width="1.6" marker-end="url(#arrow)"/>
</svg>
