<svg xmlns="http://www.w3.org/2000/svg" width="1520" height="980" viewBox="0 0 1520 980" role="img" aria-label="Диаграмма пакетов и направлений зависимостей">
  <defs>
    <marker id="arrow" viewBox="0 0 10 10" refX="9" refY="5" markerWidth="8" markerHeight="8" orient="auto-start-reverse">
      <path d="M 0 0 L 10 5 L 0 10 z" fill="#334155"/>
    </marker>
    <marker id="arrow-dashed" viewBox="0 0 10 10" refX="9" refY="5" markerWidth="8" markerHeight="8" orient="auto-start-reverse">
      <path d="M 0 0 L 10 5 L 0 10 z" fill="#64748B"/>
    </marker>
  </defs>
  <rect x="0" y="0" width="1520" height="980" fill="#FFFFFF"/>
  <rect x="20" y="20" width="1480" height="940" rx="18" fill="#F8FAFC" stroke="#E2E8F0" stroke-width="1"/>
  <text x="760" y="64" text-anchor="middle" font-family="Segoe UI, Arial, sans-serif" font-size="28" font-weight="700" fill="#0F172A">Диаграмма пакетов и направлений зависимостей</text>

  <rect x="40" y="130" width="1410" height="700" rx="18" fill="#FFFFFF" stroke="#7C3AED" stroke-width="1.8"/>
  <rect x="68" y="112" width="310" height="38" rx="10" fill="#FFFFFF" stroke="#7C3AED" stroke-width="1.8"/>
  <text x="95" y="137" text-anchor="start" font-family="Segoe UI, Arial, sans-serif" font-size="15" font-weight="700" fill="#0F172A">com.qsystems.meddoctorassignment</text>

  <!-- Entry -->
  <rect x="80" y="210" width="265" height="280" rx="16" fill="#FFFFFF" stroke="#7C3AED" stroke-width="1.8"/>
  <rect x="108" y="192" width="170" height="38" rx="10" fill="#FFFFFF" stroke="#7C3AED" stroke-width="1.8"/>
  <text x="123" y="217" text-anchor="start" font-family="Segoe UI, Arial, sans-serif" font-size="15" font-weight="700" fill="#0F172A">Точка входа</text>

  <rect x="110" y="250" width="195" height="78" rx="12" fill="#E0F2FE" stroke="#0369A1" stroke-width="1.8"/>
  <rect x="122" y="268" width="14" height="10" rx="1" fill="#BAE6FD" stroke="#0369A1" stroke-width="1"/>
  <rect x="122" y="283" width="14" height="10" rx="1" fill="#BAE6FD" stroke="#0369A1" stroke-width="1"/>
  <text x="208" y="286" text-anchor="middle" font-family="Segoe UI, Arial, sans-serif" font-size="17" font-weight="700" fill="#0F172A">websocket</text>
  <text x="208" y="307" text-anchor="middle" font-family="Segoe UI, Arial, sans-serif" font-size="13" fill="#475569">SockJS / STOMP</text>

  <rect x="110" y="355" width="195" height="78" rx="12" fill="#E0F2FE" stroke="#0369A1" stroke-width="1.8"/>
  <rect x="122" y="373" width="14" height="10" rx="1" fill="#BAE6FD" stroke="#0369A1" stroke-width="1"/>
  <rect x="122" y="388" width="14" height="10" rx="1" fill="#BAE6FD" stroke="#0369A1" stroke-width="1"/>
  <text x="208" y="391" text-anchor="middle" font-family="Segoe UI, Arial, sans-serif" font-size="17" font-weight="700" fill="#0F172A">event</text>
  <text x="208" y="412" text-anchor="middle" font-family="Segoe UI, Arial, sans-serif" font-size="13" fill="#475569">корреляция</text>

  <rect x="110" y="515" width="195" height="78" rx="12" fill="#E0F2FE" stroke="#0369A1" stroke-width="1.8"/>
  <rect x="122" y="533" width="14" height="10" rx="1" fill="#BAE6FD" stroke="#0369A1" stroke-width="1"/>
  <rect x="122" y="548" width="14" height="10" rx="1" fill="#BAE6FD" stroke="#0369A1" stroke-width="1"/>
  <text x="208" y="551" text-anchor="middle" font-family="Segoe UI, Arial, sans-serif" font-size="17" font-weight="700" fill="#0F172A">schedule</text>
  <text x="208" y="572" text-anchor="middle" font-family="Segoe UI, Arial, sans-serif" font-size="13" fill="#475569">cron-сверка</text>

  <!-- Domain -->
  <rect x="430" y="210" width="470" height="470" rx="16" fill="#FFFFFF" stroke="#7C3AED" stroke-width="1.8"/>
  <rect x="458" y="192" width="170" height="38" rx="10" fill="#FFFFFF" stroke="#7C3AED" stroke-width="1.8"/>
  <text x="473" y="217" text-anchor="start" font-family="Segoe UI, Arial, sans-serif" font-size="15" font-weight="700" fill="#0F172A">Домен</text>

  <rect x="490" y="250" width="170" height="72" rx="8" fill="#FFFFFF" stroke="#64748B" stroke-width="1.5"/>
  <text x="575" y="272" text-anchor="middle" font-family="Segoe UI, Arial, sans-serif" font-size="11" fill="#475569">«interface»</text>
  <text x="575" y="300" text-anchor="middle" font-family="Segoe UI, Arial, sans-serif" font-size="15" font-weight="700" fill="#0F172A">domain.service</text>

  <rect x="490" y="390" width="175" height="78" rx="8" fill="#FFFFFF" stroke="#64748B" stroke-width="1.5"/>
  <text x="577.5" y="424" text-anchor="middle" font-family="Segoe UI, Arial, sans-serif" font-size="16" font-weight="700" fill="#0F172A">domain.impl</text>
  <text x="577.5" y="446" text-anchor="middle" font-family="Segoe UI, Arial, sans-serif" font-size="13" fill="#475569">алгоритмы</text>

  <rect x="690" y="390" width="140" height="78" rx="8" fill="#DCFCE7" stroke="#15803D" stroke-width="1.5"/>
  <text x="760" y="424" text-anchor="middle" font-family="Segoe UI, Arial, sans-serif" font-size="16" font-weight="700" fill="#0F172A">domain.model</text>
  <text x="760" y="446" text-anchor="middle" font-family="Segoe UI, Arial, sans-serif" font-size="13" fill="#475569">модели</text>

  <path d="M 492 560 C 492 538, 642 538, 642 560 L 642 602 C 642 624, 492 624, 492 602 Z" fill="#DCFCE7" stroke="#15803D" stroke-width="1.8"/>
  <path d="M 492 560 C 492 582, 642 582, 642 560" fill="none" stroke="#15803D" stroke-width="1.3"/>
  <path d="M 492 602 C 492 624, 642 624, 642 602" fill="none" stroke="#15803D" stroke-width="1.3"/>
  <text x="567" y="592" text-anchor="middle" font-family="Segoe UI, Arial, sans-serif" font-size="17" font-weight="700" fill="#0F172A">cache</text>
  <text x="567" y="612" text-anchor="middle" font-family="Segoe UI, Arial, sans-serif" font-size="13" fill="#475569">локальный срез</text>

  <rect x="690" y="535" width="140" height="78" rx="8" fill="#FFFFFF" stroke="#64748B" stroke-width="1.5"/>
  <text x="760" y="569" text-anchor="middle" font-family="Segoe UI, Arial, sans-serif" font-size="16" font-weight="700" fill="#0F172A">util</text>
  <text x="760" y="591" text-anchor="middle" font-family="Segoe UI, Arial, sans-serif" font-size="13" fill="#475569">lock / TTL</text>

  <!-- Adapters -->
  <rect x="960" y="210" width="280" height="360" rx="16" fill="#FFFFFF" stroke="#7C3AED" stroke-width="1.8"/>
  <rect x="988" y="192" width="170" height="38" rx="10" fill="#FFFFFF" stroke="#7C3AED" stroke-width="1.8"/>
  <text x="1003" y="217" text-anchor="start" font-family="Segoe UI, Arial, sans-serif" font-size="15" font-weight="700" fill="#0F172A">Адаптеры</text>

  <rect x="990" y="250" width="190" height="72" rx="8" fill="#FFFFFF" stroke="#64748B" stroke-width="1.5"/>
  <text x="1085" y="272" text-anchor="middle" font-family="Segoe UI, Arial, sans-serif" font-size="11" fill="#475569">«interface»</text>
  <text x="1085" y="300" text-anchor="middle" font-family="Segoe UI, Arial, sans-serif" font-size="15" font-weight="700" fill="#0F172A">gateway</text>

  <rect x="990" y="355" width="190" height="78" rx="12" fill="#E0F2FE" stroke="#0369A1" stroke-width="1.8"/>
  <rect x="1002" y="373" width="14" height="10" rx="1" fill="#BAE6FD" stroke="#0369A1" stroke-width="1"/>
  <rect x="1002" y="388" width="14" height="10" rx="1" fill="#BAE6FD" stroke="#0369A1" stroke-width="1"/>
  <text x="1085" y="391" text-anchor="middle" font-family="Segoe UI, Arial, sans-serif" font-size="17" font-weight="700" fill="#0F172A">gateway.impl</text>
  <text x="1085" y="412" text-anchor="middle" font-family="Segoe UI, Arial, sans-serif" font-size="13" fill="#475569">реализация</text>

  <rect x="990" y="460" width="190" height="78" rx="12" fill="#E0F2FE" stroke="#0369A1" stroke-width="1.8"/>
  <rect x="1002" y="478" width="14" height="10" rx="1" fill="#BAE6FD" stroke="#0369A1" stroke-width="1"/>
  <rect x="1002" y="493" width="14" height="10" rx="1" fill="#BAE6FD" stroke="#0369A1" stroke-width="1"/>
  <text x="1085" y="496" text-anchor="middle" font-family="Segoe UI, Arial, sans-serif" font-size="17" font-weight="700" fill="#0F172A">orchestra</text>
  <text x="1085" y="517" text-anchor="middle" font-family="Segoe UI, Arial, sans-serif" font-size="13" fill="#475569">REST</text>

  <rect x="990" y="585" width="190" height="78" rx="12" fill="#E0F2FE" stroke="#0369A1" stroke-width="1.8"/>
  <rect x="1002" y="603" width="14" height="10" rx="1" fill="#BAE6FD" stroke="#0369A1" stroke-width="1"/>
  <rect x="1002" y="618" width="14" height="10" rx="1" fill="#BAE6FD" stroke="#0369A1" stroke-width="1"/>
  <text x="1085" y="621" text-anchor="middle" font-family="Segoe UI, Arial, sans-serif" font-size="17" font-weight="700" fill="#0F172A">medrobot</text>
  <text x="1085" y="642" text-anchor="middle" font-family="Segoe UI, Arial, sans-serif" font-size="13" fill="#475569">REST</text>

  <!-- Platform -->
  <rect x="1275" y="210" width="150" height="245" rx="16" fill="#FFFFFF" stroke="#7C3AED" stroke-width="1.8"/>
  <rect x="1295" y="192" width="95" height="38" rx="10" fill="#FFFFFF" stroke="#7C3AED" stroke-width="1.8"/>
  <text x="1310" y="217" text-anchor="start" font-family="Segoe UI, Arial, sans-serif" font-size="15" font-weight="700" fill="#0F172A">Платформа</text>

  <rect x="1300" y="250" width="115" height="78" rx="10" fill="#FFF7ED" stroke="#C2410C" stroke-width="1.8"/>
  <path d="M 1387 250 L 1387 278 L 1415 278" fill="none" stroke="#C2410C" stroke-width="1.3"/>
  <text x="1357.5" y="287" text-anchor="middle" font-family="Segoe UI, Arial, sans-serif" font-size="17" font-weight="700" fill="#7C2D12">config</text>
  <text x="1357.5" y="308" text-anchor="middle" font-family="Segoe UI, Arial, sans-serif" font-size="13" fill="#7C2D12">yml / flags</text>

  <rect x="1300" y="365" width="115" height="78" rx="12" fill="#E0F2FE" stroke="#0369A1" stroke-width="1.8"/>
  <rect x="1312" y="383" width="14" height="10" rx="1" fill="#BAE6FD" stroke="#0369A1" stroke-width="1"/>
  <rect x="1312" y="398" width="14" height="10" rx="1" fill="#BAE6FD" stroke="#0369A1" stroke-width="1"/>
  <text x="1357.5" y="401" text-anchor="middle" font-family="Segoe UI, Arial, sans-serif" font-size="17" font-weight="700" fill="#0F172A">diagnostics</text>
  <text x="1357.5" y="422" text-anchor="middle" font-family="Segoe UI, Arial, sans-serif" font-size="13" fill="#475569">checks</text>

  <!-- Arrows -->
  <path d="M 305 289 L 490 289" fill="none" stroke="#334155" stroke-width="1.6" marker-end="url(#arrow)"/>
  <text x="397" y="279" text-anchor="middle" font-family="Segoe UI, Arial, sans-serif" font-size="13" fill="#64748B">события</text>

  <path d="M 305 394 L 430 394 L 430 289 L 490 289" fill="none" stroke="#334155" stroke-width="1.6" stroke-linejoin="round" stroke-linecap="round" marker-end="url(#arrow)"/>
  <text x="385" y="381" text-anchor="middle" font-family="Segoe UI, Arial, sans-serif" font-size="13" fill="#64748B">запуск цикла</text>

  <path d="M 305 554 L 388 554 L 458 430" fill="none" stroke="#64748B" stroke-width="1.6" stroke-dasharray="8 7" stroke-linejoin="round" stroke-linecap="round" marker-end="url(#arrow-dashed)"/>
  <text x="390" y="516" text-anchor="middle" font-family="Segoe UI, Arial, sans-serif" font-size="13" fill="#64748B">плановая сверка</text>

  <path d="M 577.5 322 L 577.5 390" fill="none" stroke="#334155" stroke-width="1.6" marker-end="url(#arrow)"/>
  <text x="621" y="354" text-anchor="middle" font-family="Segoe UI, Arial, sans-serif" font-size="13" fill="#64748B">контракты</text>

  <path d="M 665 429 L 690 429" fill="none" stroke="#334155" stroke-width="1.6" marker-end="url(#arrow)"/>
  <text x="677" y="418" text-anchor="middle" font-family="Segoe UI, Arial, sans-serif" font-size="13" fill="#64748B">модели</text>

  <path d="M 577.5 468 L 577.5 538" fill="none" stroke="#334155" stroke-width="1.6" marker-end="url(#arrow)"/>
  <text x="612" y="506" text-anchor="middle" font-family="Segoe UI, Arial, sans-serif" font-size="13" fill="#64748B">локальный кэш</text>

  <path d="M 665 429 L 885 429 L 990 286" fill="none" stroke="#64748B" stroke-width="1.6" stroke-dasharray="8 7" stroke-linejoin="round" stroke-linecap="round" marker-end="url(#arrow-dashed)"/>
  <text x="860" y="356" text-anchor="middle" font-family="Segoe UI, Arial, sans-serif" font-size="13" fill="#64748B">порты</text>

  <path d="M 1085 322 L 1085 355" fill="none" stroke="#334155" stroke-width="1.6" marker-end="url(#arrow)"/>
  <text x="1142" y="345" text-anchor="middle" font-family="Segoe UI, Arial, sans-serif" font-size="13" fill="#64748B">реализация</text>

  <path d="M 1085 433 L 1085 460" fill="none" stroke="#334155" stroke-width="1.6" marker-end="url(#arrow)"/>
  <text x="1115" y="449" text-anchor="middle" font-family="Segoe UI, Arial, sans-serif" font-size="13" fill="#64748B">Orchestra REST</text>

  <path d="M 1085 538 L 1085 585" fill="none" stroke="#334155" stroke-width="1.6" marker-end="url(#arrow)"/>
  <text x="1117" y="566" text-anchor="middle" font-family="Segoe UI, Arial, sans-serif" font-size="13" fill="#64748B">med-robot REST</text>

  <path d="M 1300 289 L 1238 289 L 900 289 L 660 289" fill="none" stroke="#64748B" stroke-width="1.6" stroke-dasharray="8 7" stroke-linejoin="round" stroke-linecap="round" marker-end="url(#arrow-dashed)"/>
  <text x="974" y="278" text-anchor="middle" font-family="Segoe UI, Arial, sans-serif" font-size="13" fill="#64748B">flags</text>

  <path d="M 1357.5 328 L 1357.5 365" fill="none" stroke="#334155" stroke-width="1.6" marker-end="url(#arrow)"/>
  <text x="1387" y="349" text-anchor="middle" font-family="Segoe UI, Arial, sans-serif" font-size="13" fill="#64748B">checks</text>

  <rect x="330" y="845" width="860" height="70" rx="10" fill="#FFF7ED" stroke="#C2410C" stroke-width="1.4"/>
  <text x="760" y="872" text-anchor="middle" font-family="Segoe UI, Arial, sans-serif" font-size="13" fill="#7C2D12">
    <tspan x="760" dy="0">Стрелки показывают допустимое направление зависимостей: доменный слой зависит от</tspan>
    <tspan x="760" dy="18">контрактов и портов, но не от конкретных REST-клиентов.</tspan>
  </text>
</svg>
