<svg xmlns="http://www.w3.org/2000/svg" width="1130" height="760" viewBox="0 0 1130 760" role="img" aria-label="Состояния визита при автоматическом назначении">
<defs>
  <marker id="arrow" viewBox="0 0 10 10" refX="9" refY="5" markerWidth="8" markerHeight="8" orient="auto-start-reverse"><path d="M 0 0 L 10 5 L 0 10 z" fill="#334155"/></marker>
  <marker id="arrow-dashed" viewBox="0 0 10 10" refX="9" refY="5" markerWidth="8" markerHeight="8" orient="auto-start-reverse"><path d="M 0 0 L 10 5 L 0 10 z" fill="#64748B"/></marker>
</defs>
<rect x="0.0" y="0.0" width="1130.0" height="760.0" rx="0.0" fill="#FFFFFF" stroke="none" stroke-width="1"/>
<rect x="24.0" y="24.0" width="1082.0" height="712.0" rx="18.0" fill="#F8FAFC" stroke="#E2E8F0" stroke-width="1"/>
<text x="565.0" y="60.0" text-anchor="middle" font-family="Segoe UI, Arial, sans-serif" font-size="25" font-weight="700" fill="#0F172A" >Состояния визита при автоматическом назначении</text>
<circle cx="100" cy="345" r="12" fill="#334155"/>
<rect x="155.0" y="300.0" width="170.0" height="90.0" rx="12.0" fill="#E0F2FE" stroke="#0369A1" stroke-width="1.8"/>
<rect x="165.0" y="316.0" width="14.0" height="10.0" rx="1.0" fill="#BAE6FD" stroke="#0369A1" stroke-width="1"/>
<rect x="165.0" y="331.0" width="14.0" height="10.0" rx="1.0" fill="#BAE6FD" stroke="#0369A1" stroke-width="1"/>
<text x="240.0" y="334.0" text-anchor="middle" font-family="Segoe UI, Arial, sans-serif" font-size="17" font-weight="700" fill="#0F172A">
<tspan x="240.0" dy="0">Очередь</tspan>
</text>
<text x="240.0" y="359.0" text-anchor="middle" font-family="Segoe UI, Arial, sans-serif" font-size="13" font-weight="400" fill="#475569">
<tspan x="240.0" dy="0">«Врач не назначен»</tspan>
</text>
<rect x="380.0" y="300.0" width="160.0" height="90.0" rx="12.0" fill="#E0F2FE" stroke="#0369A1" stroke-width="1.8"/>
<rect x="390.0" y="316.0" width="14.0" height="10.0" rx="1.0" fill="#BAE6FD" stroke="#0369A1" stroke-width="1"/>
<rect x="390.0" y="331.0" width="14.0" height="10.0" rx="1.0" fill="#BAE6FD" stroke="#0369A1" stroke-width="1"/>
<text x="460.0" y="334.0" text-anchor="middle" font-family="Segoe UI, Arial, sans-serif" font-size="17" font-weight="700" fill="#0F172A">
<tspan x="460.0" dy="0">Анализ</tspan>
</text>
<text x="460.0" y="359.0" text-anchor="middle" font-family="Segoe UI, Arial, sans-serif" font-size="13" font-weight="400" fill="#475569">
<tspan x="460.0" dy="0">маршрута</tspan>
</text>
<rect x="595.0" y="300.0" width="150.0" height="90.0" rx="12.0" fill="#E0F2FE" stroke="#0369A1" stroke-width="1.8"/>
<rect x="605.0" y="316.0" width="14.0" height="10.0" rx="1.0" fill="#BAE6FD" stroke="#0369A1" stroke-width="1"/>
<rect x="605.0" y="331.0" width="14.0" height="10.0" rx="1.0" fill="#BAE6FD" stroke="#0369A1" stroke-width="1"/>
<text x="670.0" y="334.0" text-anchor="middle" font-family="Segoe UI, Arial, sans-serif" font-size="17" font-weight="700" fill="#0F172A">
<tspan x="670.0" dy="0">Выбор</tspan>
</text>
<text x="670.0" y="359.0" text-anchor="middle" font-family="Segoe UI, Arial, sans-serif" font-size="13" font-weight="400" fill="#475569">
<tspan x="670.0" dy="0">услуги</tspan>
</text>
<rect x="815.0" y="205.0" width="160.0" height="90.0" rx="12.0" fill="#E0F2FE" stroke="#0369A1" stroke-width="1.8"/>
<rect x="825.0" y="221.0" width="14.0" height="10.0" rx="1.0" fill="#BAE6FD" stroke="#0369A1" stroke-width="1"/>
<rect x="825.0" y="236.0" width="14.0" height="10.0" rx="1.0" fill="#BAE6FD" stroke="#0369A1" stroke-width="1"/>
<text x="895.0" y="239.0" text-anchor="middle" font-family="Segoe UI, Arial, sans-serif" font-size="17" font-weight="700" fill="#0F172A">
<tspan x="895.0" dy="0">Проверка</tspan>
</text>
<text x="895.0" y="264.0" text-anchor="middle" font-family="Segoe UI, Arial, sans-serif" font-size="13" font-weight="400" fill="#475569">
<tspan x="895.0" dy="0">med-robot</tspan>
</text>
<rect x="815.0" y="410.0" width="160.0" height="90.0" rx="12.0" fill="#E0F2FE" stroke="#0369A1" stroke-width="1.8"/>
<rect x="825.0" y="426.0" width="14.0" height="10.0" rx="1.0" fill="#BAE6FD" stroke="#0369A1" stroke-width="1"/>
<rect x="825.0" y="441.0" width="14.0" height="10.0" rx="1.0" fill="#BAE6FD" stroke="#0369A1" stroke-width="1"/>
<text x="895.0" y="444.0" text-anchor="middle" font-family="Segoe UI, Arial, sans-serif" font-size="17" font-weight="700" fill="#0F172A">
<tspan x="895.0" dy="0">Локальный</tspan>
</text>
<text x="895.0" y="469.0" text-anchor="middle" font-family="Segoe UI, Arial, sans-serif" font-size="13" font-weight="400" fill="#475569">
<tspan x="895.0" dy="0">fallback</tspan>
</text>
<rect x="610.0" y="555.0" width="165.0" height="90.0" rx="12.0" fill="#E0F2FE" stroke="#0369A1" stroke-width="1.8"/>
<rect x="620.0" y="571.0" width="14.0" height="10.0" rx="1.0" fill="#BAE6FD" stroke="#0369A1" stroke-width="1"/>
<rect x="620.0" y="586.0" width="14.0" height="10.0" rx="1.0" fill="#BAE6FD" stroke="#0369A1" stroke-width="1"/>
<text x="692.5" y="589.0" text-anchor="middle" font-family="Segoe UI, Arial, sans-serif" font-size="17" font-weight="700" fill="#0F172A">
<tspan x="692.5" dy="0">Назначение</tspan>
</text>
<text x="692.5" y="614.0" text-anchor="middle" font-family="Segoe UI, Arial, sans-serif" font-size="13" font-weight="400" fill="#475569">
<tspan x="692.5" dy="0">услуги</tspan>
</text>
<rect x="855.0" y="555.0" width="160.0" height="90.0" rx="12.0" fill="#E0F2FE" stroke="#0369A1" stroke-width="1.8"/>
<rect x="865.0" y="571.0" width="14.0" height="10.0" rx="1.0" fill="#BAE6FD" stroke="#0369A1" stroke-width="1"/>
<rect x="865.0" y="586.0" width="14.0" height="10.0" rx="1.0" fill="#BAE6FD" stroke="#0369A1" stroke-width="1"/>
<text x="935.0" y="589.0" text-anchor="middle" font-family="Segoe UI, Arial, sans-serif" font-size="17" font-weight="700" fill="#0F172A">
<tspan x="935.0" dy="0">Перевод</tspan>
</text>
<text x="935.0" y="614.0" text-anchor="middle" font-family="Segoe UI, Arial, sans-serif" font-size="13" font-weight="400" fill="#475569">
<tspan x="935.0" dy="0">в очередь</tspan>
</text>
<circle cx="1040" cy="600" r="13" fill="#FFFFFF" stroke="#334155" stroke-width="2"/><circle cx="1040" cy="600" r="7" fill="#334155"/>
<path d="M 112.0 345.0 L 155.0 345.0" fill="none" stroke="#334155" stroke-width="1.6" marker-end="url(#arrow)"/>
<text x="133.5" y="337.0" text-anchor="middle" font-family="Segoe UI, Arial, sans-serif" font-size="13" font-weight="400" fill="#64748B" >старт</text>
<path d="M 325.0 345.0 L 380.0 345.0" fill="none" stroke="#334155" stroke-width="1.6" marker-end="url(#arrow)"/>
<text x="352.5" y="337.0" text-anchor="middle" font-family="Segoe UI, Arial, sans-serif" font-size="13" font-weight="400" fill="#64748B" >врач готов</text>
<path d="M 540.0 345.0 L 595.0 345.0" fill="none" stroke="#334155" stroke-width="1.6" marker-end="url(#arrow)"/>
<text x="567.5" y="337.0" text-anchor="middle" font-family="Segoe UI, Arial, sans-serif" font-size="13" font-weight="400" fill="#64748B" >услуги</text>
<path d=" M 745.0 330.0 L 780.0 330.0 L 815.0 250.0" fill="none" stroke="#334155" stroke-width="1.6" stroke-linejoin="round" stroke-linecap="round" marker-end="url(#arrow)"/>
<text x="780.0" y="290.0" text-anchor="middle" font-family="Segoe UI, Arial, sans-serif" font-size="13" font-weight="400" fill="#64748B" >robot on</text>
<path d=" M 745.0 360.0 L 780.0 360.0 L 815.0 455.0" fill="none" stroke="#334155" stroke-width="1.6" stroke-linejoin="round" stroke-linecap="round" marker-end="url(#arrow)"/>
<text x="780.0" y="407.5" text-anchor="middle" font-family="Segoe UI, Arial, sans-serif" font-size="13" font-weight="400" fill="#64748B" >robot off</text>
<path d=" M 895.0 295.0 L 895.0 335.0 L 695.0 555.0" fill="none" stroke="#334155" stroke-width="1.6" stroke-linejoin="round" stroke-linecap="round" marker-end="url(#arrow)"/>
<text x="795.0" y="425.0" text-anchor="middle" font-family="Segoe UI, Arial, sans-serif" font-size="13" font-weight="400" fill="#64748B" >валидно</text>
<path d="M 895.0 295.0 L 895.0 410.0" fill="none" stroke="#334155" stroke-width="1.6" marker-end="url(#arrow)"/>
<text x="895.0" y="344.5" text-anchor="middle" font-family="Segoe UI, Arial, sans-serif" font-size="13" font-weight="400" fill="#64748B" >fallback</text>
<path d=" M 815.0 455.0 L 780.0 455.0 L 695.0 555.0" fill="none" stroke="#334155" stroke-width="1.6" stroke-linejoin="round" stroke-linecap="round" marker-end="url(#arrow)"/>
<text x="755.0" y="505.0" text-anchor="middle" font-family="Segoe UI, Arial, sans-serif" font-size="13" font-weight="400" fill="#64748B" >локально</text>
<path d="M 775.0 600.0 L 855.0 600.0" fill="none" stroke="#334155" stroke-width="1.6" marker-end="url(#arrow)"/>
<text x="815.0" y="592.0" text-anchor="middle" font-family="Segoe UI, Arial, sans-serif" font-size="13" font-weight="400" fill="#64748B" >assign готов</text>
<path d="M 1015.0 600.0 L 1040.0 600.0" fill="none" stroke="#334155" stroke-width="1.6" marker-end="url(#arrow)"/>
<rect x="270.0" y="675.0" width="610.0" height="52.0" rx="8.0" fill="#FFF7ED" stroke="#C2410C" stroke-width="1.4"/>
<text x="575.0" y="694.5" text-anchor="middle" font-family="Segoe UI, Arial, sans-serif" font-size="13" font-weight="400" fill="#7C2D12">
<tspan x="575.0" dy="0">Lifecycle показывает, где принимается решение, где включается fallback</tspan>
<tspan x="575.0" dy="17">и где выполняются REST-мутации Orchestra.</tspan>
</text>
</svg>
